# xmcd CD database file
#
# Track frame offsets:
#	150
#	16487
#	37106
#	49506
#	68531
#	90931
#	105253
#	116137
#	136724
#	151640
#	168884
#	182034
#	191559
#	208907
#
# Disc length: 2993 seconds
#
# Revision: 0
# Processed by: cddbd v1.5PL3 Copyright (c) Steve Scherf et al.
# Submitted via: CDex 1.50
#
DISCID=a90baf0e
DTITLE=Sidney's Blues - Rote Rosen
DYEAR=1999
DGENRE=Jazz
TTITLE0=Im Frühtau zu Berge
TTITLE1=Roter Mohn
TTITLE2=Blau blüht der Enzian
TTITLE3=Sah ein Knab' ein Röslein steh'n
TTITLE4=Bunt sind schon die Wälder
TTITLE5=Schenk' deiner Frau...
TTITLE6=Schneeflöckchen weiß' Röckchen
TTITLE7=Grün sind alle meine Kleider
TTITLE8=Die Blümelein, sie schlafen
TTITLE9=Wenn der weiße Flieder
TTITLE10=Für mich soll's rote Rosen regnen
TTITLE11=Komm' lieber Mai
TTITLE12=Ganz in Weiß
TTITLE13=Petite Fleur
EXTD=YEAR: 1999
EXTT0=
EXTT1=
EXTT2=
EXTT3=
EXTT4=
EXTT5=
EXTT6=
EXTT7=
EXTT8=
EXTT9=
EXTT10=
EXTT11=
EXTT12=
EXTT13=
PLAYORDER=
